<svg xmlns="http://www.w3.org/2000/svg" width="20" height="20" viewBox="0 0 20 20">
    <g fill="none" fill-rule="evenodd">
        <g fill="#FFF" fill-rule="nonzero">
            <g>
                <g>
                    <g>
                        <g>
                            <path d="M9.522 3.51c1.02 0 2.098.56 2.866 1.522-2.517 1.389-2.11 5.006.434 5.974-.35.78-.517 1.128-.968 1.819-.63.964-1.515 2.165-2.615 2.173-.976.01-1.227-.64-2.552-.632-1.324.007-1.6.643-2.578.634-1.099-.01-1.939-1.093-2.568-2.057C-.216 10.25-.402 7.088.683 5.406c.771-1.195 1.988-1.893 3.13-1.893 1.164 0 1.896.642 2.86.642.935 0 1.504-.644 2.85-.644zM9.228 0c.134.911-.236 1.804-.726 2.435-.523.677-1.426 1.202-2.3 1.174-.159-.872.25-1.77.747-2.375C7.494.567 8.429.055 9.228 0z" transform="translate(-19 -41) translate(0 26) translate(9 5) translate(10 10) translate(3.333 2.5)"/>
                        </g>
                    </g>
                </g>
            </g>
        </g>
    </g>
</svg>
